<?xml version="1.0" encoding="utf-8"?>
<!-- Generator: Adobe Illustrator 16.0.4, SVG Export Plug-In . SVG Version: 6.00 Build 0)  -->
<!DOCTYPE svg PUBLIC "-//W3C//DTD SVG 1.1//EN" "http://www.w3.org/Graphics/SVG/1.1/DTD/svg11.dtd">
<svg version="1.1" id="Layer_1" xmlns="http://www.w3.org/2000/svg" xmlns:xlink="http://www.w3.org/1999/xlink" x="0px" y="0px"
	 width="936px" height="936px" viewBox="0 0 936 936" enable-background="new 0 0 936 936" xml:space="preserve">
<path fill-rule="evenodd" clip-rule="evenodd" d="M636.83,214.442c3.296-1.046,7.148-3.622,10.824-2.914
	c-2.545,8.557-10.518,11.688-18.735,14.572c8.547,12.296,6.235,40.048-0.416,54.125c-2.667,0.447-2.409-2.033-3.747-2.915
	c-3.042,8.338-7.051,15.71-11.241,22.899c-2.448-0.189-3.355-1.919-4.164-3.747c-7.736,5.448-11.465,14.903-13.74,25.813
	c7.353-2.779,3.346-16.917,12.907-17.487c0.046,3.146-0.314,6.7,0.833,8.744c8.207-5.027,10.46-16.011,15.022-24.685
	c1.404-2.671,3.677,1.525,5.516-1.376c6.251-9.86,10.767-21.454,11.938-36.392c35.765,9.663,50.523,90.186,80.771,104.92
	c-12.646,2.19-20.416-3.974-29.561-6.662c1.289,10.097,13.688,14.893,13.739,26.23c-3.887,0-7.771,0-11.657,0
	c1.6,6.736,4.84,8.097,3.747,17.071c-3.154,25.876-28.615,41.347-57.825,54.937c-37.311,17.358-81.916,29.836-106.633,37.492
	c-0.74-6.421,5.16-6.233,8.743-8.327c11.056-6.467,15.705-20.01,27.062-26.229c0.946,2.986-0.508,6.537-0.416,9.992
	c7.378-1.241,10.581-8.572,13.324-15.405c2.829-7.05,5.114-15.378,6.244-23.315c-19.291,23.354-50.274,43.093-80.771,58.289
	c-18.146,9.04-36.877,15.621-62.868,16.236c8.25-7.708,21.592-10.327,27.062-20.817c-23.97,7.949-42.081,21.759-75.774,19.985
	c3.247-6.884,9.71-10.551,13.739-16.654c-31.71,17.876-84.907,4.379-104.503-17.069c14.934,26.423,38.845,47.478,58.29,70.778
	c-15.391-3.071-25.896-14.626-38.305-22.066c-37.642-23.261-69.925-51.917-87.85-95.343c-2.282,34.062,14.078,53.093,27.063,73.278
	c-48.509-39.947-70.851-90.083-72.332-136.787c-1.626-51.298,21.914-98.458,63.587-123.433
	c-13.132,31.835-43.316,46.614-42.468,92.43c13.903-22.737,26.552-46.727,50.379-59.538c0.744,1.78-1.874,4.492-3.331,6.662
	c-16.646,24.788-35.874,67.724-20.401,107.834c7.9-31.541,21.201-60.838,49.545-73.277c-1.561,14.815-11.179,21.573-13.74,35.389
	c9.123-4.338,11.654-15.271,23.732-16.654c-2.911,11.105-8.435,19.599-11.241,30.81c9.534-9.203,14.221-23.251,23.731-32.476
	c4.862-2.909,11.603-3.941,14.156-9.159c-2.759-1.768-2.74,2.418-5.829,1.666c-4.193-5.537-6.296-13.109-8.222-21.157
	c-3.319-13.868-4.425-29.431-2.604-40.463c8.501,4.683,5.748,20.622,11.658,27.895c5.037-2.596,5.297-9.968,10.409-12.49
	c1.649,5.29,0.209,13.669,3.331,17.487c-0.124,24.364,14.746,36.473,32.892,42.468c19.71,6.512,44.108,7.832,52.877,26.23
	c3.059-4.713-0.025-15.568,3.331-19.985c6.097,4.379,7.978,12.935,10.408,20.817c3.499,11.349,7.981,24.164,19.985,27.062
	c-0.447,3.64,1.696,4.688,1.249,8.328c6.473,0.923,9.654-3.205,14.989-2.082c0.465,3.09-0.91,5.658,0,7.911
	c4.801,1.831,6.432-2.964,11.657-2.082c-0.024,2.924,2.079,5.136,2.498,8.743c3.582-0.443,5.86-2.188,8.744-3.33
	c2.889,1.136,3.583,4.466,3.747,8.327c12.337-2.374,26.525-2.896,30.81-13.324c-23.279-1.147-50.191,1.34-61.204-12.074
	c22.354,1.042,59.945,9.354,72.029-7.911c-29.44,0.164-72.268,9.6-92.014-7.078c-5.171-9.817-8.892-21.084-8.743-36.222
	c-4.313-5.818-14.04-6.223-18.319-12.074c-2.101,1.37-1.601,5.338-1.665,8.744c-17.343-2.945-15.905-43.35,2.081-42.884
	c-7.803,39.81,50.988,38.946,74.943,25.813c-18.676-3.114-40.559-3.02-42.884-22.483c8.333,6.279,35.425,20.063,40.802,2.498
	c-4.381,2.587-16.503,9.039-23.315,3.331c-1.469-1.231-4.214-5.311-3.747-7.911c0.992-5.526,16.662-6.853,25.397-5.829
	c7.318,0.858,11.567,3.442,15.821,6.246c7.555-3.272,14.672-6.979,23.731-8.744c-5.284-4.455-15.156-1.037-19.984,2.082
	c-9.857-5.271-25.642-4.614-37.887-7.495c10.423-15.907,51.36,1.761,66.614-9.992c9.33-42.042-28.729-56.871-66.199-48.297
	c3.083-9.824,13.939-11.875,24.981-13.739c-0.205-5.347-2.699-8.405-2.082-14.572c5.275,0.119,5.352,5.598,7.909,9.159
	c2.413,3.357,8.235,5.885,12.491,6.663c18.043,3.294,34.57-5.832,38.722-19.152c3.025,15.986-9.214,20.17-14.573,29.144
	c18.009-3.364,24.862-17.881,34.557-29.561c3.159,5.32-0.125,13.304-1.248,18.32c4.48-0.516,4.892-5.101,8.743-6.245
	c0.698-4.021,2.418-7.02,4.164-9.993c-0.696-4.33,1.093-12.02-0.417-16.237c-11.589-32.372-61.53-48.388-104.504-52.46
	c-45.753-4.336-91.128,2.778-123.656,14.572c14.105-12.403,35.299-17.717,57.458-22.066c0.251-1.797-3.245-2.005-1.666-3.748
	c2.667-2.312,6.693-1.249,9.992-1.249c21.185,0,42.297,0.445,61.203,2.498c51.448,5.585,94.672,20.998,117.412,54.958
	c11.546-0.117,19.774-5.752,32.476-3.331c-7.221,8.046-21.924,8.608-27.896,17.903c0.138,5.136-0.04,10.588,2.915,12.907
	c11.772-0.86,13.237-12.526,23.732-13.74c22.454-2.597,11.712,35.772,2.081,41.635C637.168,213.947,636.829,214.024,636.83,214.442
	L636.83,214.442z M719.268,764.856c-9.318-14.969-17.64-30.935-24.981-47.879c37.764-2.769,68.931-12.646,99.448-26.962
	c26.978-12.655,57.644-24.126,77.931-49.647c9.611,2.942,19.774,26.54,22.886,32.476c1.982,3.784,5.869,8.101,5.413,12.49
	c-0.415,3.975-7.486,11.066-12.074,15.405c-14.083,13.313-33.789,22.554-52.044,30.395c-30.042,12.902-55.178,26.097-86.186,31.643
	C739.91,764.52,730.09,764.616,719.268,764.856L719.268,764.856z M802.537,719.06L802.537,719.06
	c-0.443-0.02-1.057,0.196-0.416,0.417c22.678-5.496,40.196-18.368,62.035-23.317c-7.884,7.66-17.454,13.633-26.229,20.401
	c2.573,0.213,2.92-1.798,5.829-1.248c18.618-8.305,38.01-15.839,47.048-33.726c-7.613-9.042-10.273-23.034-19.985-29.977
	c-19.495,27.552-56.445,37.649-85.768,55.375c28.382-4.095,50.404-16.767,74.526-23.733
	C843.382,698.004,821.566,707.14,802.537,719.06L802.537,719.06z M357.875,829.392c-0.936,3.954-6.505,5.386-9.576,5.83
	C348.25,830.281,353.256,828.285,357.875,829.392L357.875,829.392z M300.835,823.147c-1.589,3.685-7.799,2.748-11.658,4.162
	c1.299-4.141,8.343-4.666,11.658-5.413C300.835,822.313,300.835,822.73,300.835,823.147L300.835,823.147z M99.322,698.242
	c0.056-2.104,77.912,35.234,84.519,37.888c-11.951,4.049-22.695-3.201-34.557-3.331c0.217,5.637,3.488,10.358,2.915,15.404
	C132.201,733.922,115.852,715.991,99.322,698.242L99.322,698.242z M869.713,633.176c-19.252-17.133-84.014,13.091-100.796,20.899
	c-10.915,5.078-27.743,14.466-43.623,23.634c-16.904,9.759-32.651,19.557-36.12,33.425c38.275,4.419,70.951-8.147,104.307-23.262
	c13.539-6.136,37.254-16.994,54.942-29.786C858.904,650.506,867.876,643.223,869.713,633.176L869.713,633.176z M820.024,644.115
	L820.024,644.115c2.66,0.414,8.749-1.52,8.743,2.914c-0.001,0.912-3.593,4.481-4.996,5.83
	c-12.672,12.172-35.133,18.744-48.298,27.479c19.447-4.106,40.38-13.656,56.625-22.899c9.121-5.189,19.752-8.362,21.649-19.567
	C840.056,636.096,829.401,640.261,820.024,644.115L820.024,644.115z M555.226,616.22c9.465,9.869,14.786,37.288,6.245,52.461
	c-5.172-6.763-9.637-14.235-19.984-15.821c-13.557,18.642-6.289,58.107-16.655,79.939c-1.843-0.517-3.019-1.699-5.828-1.248
	c-2.529,7.045-5.748,13.403-12.491,16.235c-8.437-23.622-12.368-51.749-42.467-53.709c-17.544,14.008,0.356,41.194,6.661,55.792
	c-5.205,2.149-10.751,3.959-17.902,4.164c-1.378,5.56-1.682,12.196-7.078,13.739c-1.436-5.227-2.533-10.792-9.576-10.408
	c-0.523,7.525-3.128,12.97-8.328,15.819c-7.551-24.866-16.918-47.919-38.738-58.519c-7.46-3.622-12.243-2.665-12.074,6.601
	c0.577,31.029,18.484,44.729,25.415,69.404c-10.442,2.743-21.973,4.398-32.476,7.079c-4.926-13.059-9.079-28.035-14.572-41.219
	c-4.4-10.632-9.512-21.934-20.121-26.683c-7.323-3.277-8.444-1.825-11.082,5.379c-8.232,22.475,6.714,49.504,14.965,65.021
	c-5.288,1.097-13.484-0.716-15.405,3.748c8.044,1.67,14.744,4.686,24.148,4.996c12.114,12.589,26.42,22.986,44.965,29.144
	c-3.303-11.547-14.243-15.455-16.654-27.896c10.931-1.699,23.64-1.618,34.142-3.747c3.232,7.593,1.57,20.08,6.662,25.813
	c5.912-8.105,7.229-20.804,12.074-29.977c22.017-4.076,40.797-11.385,60.786-17.486c2.695,8.686,3.002,19.759,5.829,28.311
	c9.229-10.356,11.755-26.069,13.323-43.301c20.335-3.396,22.715-24.747,39.138-32.058c5.655,10.859,5.849,27.181,10.826,38.721
	c10.916-11.347,7.203-33.191,9.991-51.212c3.819-24.678,24.211-37.637,23.315-66.2c0.153-1.402-1.751-0.747-1.666-2.08
	C589.042,633.197,573.097,623.745,555.226,616.22L555.226,616.22z M561.887,725.721c-8.244-16.46-18.353-31.056-17.486-56.623
	C562.377,675.823,562.419,700.485,561.887,725.721L561.887,725.721L561.887,725.721z M491.522,754.864
	c-9.775-11.596-17.273-25.471-19.567-44.548C491.345,712.298,489.477,735.54,491.522,754.864L491.522,754.864L491.522,754.864z
	 M409.503,772.352c-8.53-12.432-17.796-26.328-18.319-45.382C408.279,729.442,409.151,751.747,409.503,772.352L409.503,772.352
	L409.503,772.352z M359.54,801.913c-12.386-14.312-28.841-28.823-25.396-56.208C350.057,756.994,352.993,781.26,359.54,801.913
	L359.54,801.913L359.54,801.913z M204.658,655.773c-39.229-29.905-100.517-141.048-112.414-217.75l-4.581-2.082
	c0.747,32.567,5.532,65.459,17.071,96.177c17.385,67.297,64.485,115.849,92.013,173.201c-35.066-9.762-54.576-35.078-79.523-54.959
	c20.003,45.504,63.488,67.525,98.675,97.843c-5.892-0.084-16.033-1.88-19.985,1.249c19.892,20.911,38.607,42.999,82.021,40.386
	c12.494,21.369,31.964,35.763,57.456,44.133c-8.246-15.395-17.95-34.262-25.813-55.374c-4.912-13.188-21.257-59.825-38.932-55.986
	c-11.018,2.393-10.686,28.398-8.949,38.916c-11.692-9.958-17.276-26.024-19.985-44.966c-3.072,6.226-5.013,13.583-7.494,20.4
	c-9.724-13.143-11.67-45.458-2.082-60.37c4.532-3.103,9.355-5.911,12.075-10.824c-27.375-14.005-64.98-62.18-93.379-106.974
	C161.947,597.779,186.092,624.238,204.658,655.773L204.658,655.773z M296.484,790.097c-12.265-8.013-27.194-26.203-21.462-43.976
	C289.569,752.669,291.341,774.146,296.484,790.097L296.484,790.097z M442.811,247.75c-0.665,9.716,0.887,22.204,8.328,23.731
	c-0.264-1.54-1.13-2.479-0.833-4.579c0.982-0.128,0.775-1.446,2.082-1.249c1.489,0.719,4.191,2.019,6.245,0.833
	c-0.329-2.719-3.043-2.842-4.58-4.579C450.875,258.315,448.369,247.75,442.811,247.75L442.811,247.75z M474.453,190.294
	c-3.202,4.432-2.291,12.975-7.91,14.989c-0.519-1.287-0.343-3.266-2.082-3.331c-6.701,0.932-5.561,9.705-12.907,9.992
	c-1.063-9.622-7.924-13.448-16.238-15.821c2.165,3.321,4.139,7.694,4.871,12.449c0.768,4.986,0.256,10.393,0.958,15.446
	c2.588-1.575,2.337-5.99,6.661-5.829c0.56,3.597,2.214,6.512,4.997,6.245c4.554-0.437,5.731-12.306,12.074-11.241
	c0.471,1.51-0.228,2.65,0.416,3.747C474.671,214.536,478.016,200.578,474.453,190.294L474.453,190.294z M36.036,404.715
	c7.955-104.464,52.688-172.139,118.244-219c-0.601,3-3.141,5.307-4.996,7.494c-42.24,49.809-69.259,120.412-62.036,215.253
	c-18.242-15.5-19.451-53.851-18.736-85.538c-9.724,4.31-10.424,40.692-11.241,49.732c-1.562,17.287-1.232,34.966,0,51.211
	c0.391,5.146,0.564,10.353,1.25,15.406c14.08,103.925,65.057,179.912,117.411,243.564C74.987,630.955,34.319,508.266,36.036,404.715
	L36.036,404.715z M401.592,183.216c-10.379-0.109-14.511,6.029-16.654,14.157c6.943,6.519,15.737,11.188,19.568,20.817
	c6.194,1.392,12.254-3.336,14.989,0.833c-0.921,5.463-8.702,4.067-8.744,10.409c3.369-0.256,6.16-0.484,9.161,0.417
	c-0.789,1.432-0.181,4.261-0.833,5.829c9.671-1.43,6.971-15.233,13.322-19.985c-9.878-10.106-29.56-10.409-37.471-22.483
	C397.244,189.972,401.185,188.361,401.592,183.216L401.592,183.216z M405.339,210.279c0.895,2.313,3.997,3.54,6.246,2.498
	c-0.018-0.573,0.196-0.914,0.417-1.249C411.091,209.684,407.363,208.542,405.339,210.279L405.339,210.279z M338.307,180.718
	c-6.128-2.249-10.985-2.689-17.903-3.747c-16.45-2.517-43.863-3.185-43.718,13.739c0.104,12.022,10.268,22.179,22.067,23.731
	c9.881,1.301,16.937-1.469,19.568-8.327c-1.723-3.137-6.939-4.992-7.494-7.911c3.212-0.299,3.903,1.925,7.494,1.25
	c1.187-5.636-4.707-7.024-7.078-10.409C319.832,185.837,332.513,186.721,338.307,180.718L338.307,180.718z M306.566,132.906
	C148.27,178.036,132.535,312.627,129.715,336.85c-5.372,46.134,3.139,92.009,14.988,128.652c2.417,9.879,5.878,19.304,9.576,28.312
	c3.689,8.98,7.038,18.29,12.491,25.813c-14.474-55.242-35.684-120.113-25.813-190.271
	C143.107,314.069,165.5,179.791,306.566,132.906L306.566,132.906z M568.965,223.186c7.901-0.893,14.435,1.793,22.066,2.498
	c-6.275-5.717-3.134-3.627,0-6.661C583.797,217.299,571.346,217.306,568.965,223.186L568.965,223.186z M564.199,309.447
	c3.908-2.32,4.665-7.783,11.101-7.586c0.628,0.02-0.934,3.574-0.703,3.602c6.55,0.791,10.299-29.655-6.882-36.062
	c5.824,11.478,3.24,32.48-3.576,39.8C563.531,309.852,563.303,309.977,564.199,309.447L564.199,309.447z M662.817,322.053
	c1.48,21.02,10.636,34.365,26.472,41.027c-3.275-7.347-20.403-26.781-16.236-34.557c6.875,1.729,10.729,6.479,17.902,7.91
	c-14.359-18.531-21.579-44.204-39.137-59.538c-0.489,0.065-1.183-0.07-1.248,0.417c6.934,12.159,15.093,25.17,17.291,40.934
	C668.657,323.971,662.225,313.586,662.817,322.053L662.817,322.053z M531.077,298.129L531.077,298.129
	c6.152-0.093,11.825-0.665,12.489-6.246C538.762,293.323,534.773,295.581,531.077,298.129L531.077,298.129z M507.345,307.289
	L507.345,307.289c7.125,6.203,30.563,10.069,34.557-1.665c-0.046-0.507-0.124-0.986-0.832-0.833
	C531.767,307.562,515.315,303.186,507.345,307.289L507.345,307.289z M506.586,321.148c-16.41-0.068-30.638,7.404-47.538,5.709
	c-1.964,9.368,3.609,17.532,11.241,19.985c-0.299-4.773-1.997-11.857,0-16.238c4.492,1.337,7.186,4.473,12.492,4.996
	c2.472-1.69,1.917-6.408,5.41-7.077c3.245,1.701,4.965,6.851,9.994,5.412c2.589-2.257,2.215-8.184,5.828-8.327
	c4.413-0.175,4.376,8.526,9.16,9.992c3.519-2.059,5.316-7.971,11.657-5.829c1.301,5.487,0.364,13.049,0.833,18.32
	c8.74-3.287,10.581-10.979,12.074-21.234C527.312,327.672,517.408,321.191,506.586,321.148L506.586,321.148z M485.694,355.585
	c-2.416,0.206-2.769,4.551-4.996,4.997c-3.125,0.625-7.289-3.752-9.992-5.83c-3.655-2.808-8.098-6.038-10.408-6.245
	c0.333,0.887-0.394,2.761,0,4.579c1.723,7.97,16.081,12.252,27.062,13.74c7.972,1.081,19.259,1.104,27.062,0
	c11.725-1.66,24.868-6.694,22.066-17.486c-8.15,3.507-12.128,11.187-22.482,12.49c-3.922-7.041-7.558-2.503-11.658,0.833
	c-2.915-1.109-1.607-6.441-6.244-5.829c-1.19,1.585-0.762,4.79-3.33,4.995C489.908,362.129,488.843,355.318,485.694,355.585z"/>
<path fill-rule="evenodd" clip-rule="evenodd" fill="#ED2129" d="M743.832,410.959c1.174,14.083-3.976,21.837-4.164,34.558
	c10.559,3.671,25.37,0.809,37.056,2.914c-2.966,9.946-10.468,18.951-14.572,29.144c9.558,4.763,20.827,1.384,34.14,1.665
	c-3.615,12.08-15.406,19.558-21.232,30.811c6.866,7.289,20.718,7.594,29.561,12.907c-9.517,11.994-26.065,16.958-36.222,28.312
	c17.654,5.512,49.206,3.497,68.28,5.413c-38.865,36.215-88.885,61.28-144.058,81.188c-2.047,3.894-3.772,8.11-4.903,12.922
	c-0.031,0.134-0.062,0.267-0.093,0.4c1.212-0.169,2.435-0.359,3.668-0.568c24.154-4.099,52.049-15.607,78.969-30.323
	c35.242-19.266,68.817-44.03,90.148-64.869c8.406-0.765,18.285-2.241,26.647-1.665c-46.954,62.751-134.323,97.127-204.846,121.574
	c-10.796,5.173-18.831,15.558-27.062,23.731c-8.505,8.449-17.783,14.986-30.394,19.986c0-5.135,0-10.271,0-15.405
	c-17.209,4.304-30.918,12.106-46.632,17.902c10.239-17.241,25.673-31.504,49.547-33.724c0.269,2.768-1.717,3.279-2.5,4.996
	c9.527-5.163,16.087-14.706,24.179-21.825c10.335-9.093,21.994-16.048,32.861-24.39c1.38-14.998,6.755-25.999,10.409-38.721
	c-25.651,9.259-35.83,44.539-63.284,51.21c6.131-12.882,11.436-26.591,24.564-32.475c7.698-11.178,5.225-34.884-4.996-41.219
	c-14.125,20.57-18.326,51.065-27.48,76.609c-5.207,1.472-11.023,4.494-16.653,4.162c-0.033-5.202,1.404-11.191,0.833-18.735
	c-3.072-40.495-44.396-47.773-80.772-58.289c-54.298-15.697-128.076-45.805-169.037-88.683
	c112.083,23.126,246.095-2.325,340.99-69.946c4.918-3.505,12.622-9.17,20.87-13.637C726.713,411.986,736.43,408.526,743.832,410.959
	L743.832,410.959z M762.567,50.817c-2.083,57.493,0.002,120.797-2.498,179.031c-39.382,1.004-80.833-0.061-120.325,0.833
	c2.018-9.355,10.129-9.25,15.405-16.238c2.325-3.083,4.618-8.683,7.078-13.739c3.878-7.977,7.805-17.302,7.078-27.479
	c-1.091-15.256-11.745-24.248-29.145-26.23c-8.95-1.019-14.083,1.56-22.482,2.498c-37.046-53.989-128.614-66.767-219.001-58.706
	c-5.418,0.484-12.869,1.468-18.32,2.915c0.764,3.123,6.946,0.826,7.495,4.164c-2.724,2.489-5.238,1.089-8.328,1.665
	c-9.197,1.715-17.65,8.782-26.229,9.993c-9.865,1.392-19.595-0.848-28.729,0c-29.053,2.695-51.95,12.275-75.776,19.151
	l18.736-12.906c15.118-9.789,50.494-29.778,67.864-29.977c-38.872-3.432-65.338,12.621-92.846,23.315l14.989-12.491
	c15.59-11.049,33.917-20.763,53.709-28.312c54.372-24.191,131.564-36.925,209.425-28.728l17.069,1.25
	c34.963,4.602,68.935,13.279,96.594,22.483c-0.016-10.618-0.584-23.23-0.592-31.226C674.49,32.082,721.914,41.033,762.567,50.817
	L762.567,50.817z M572.295,558.764c-4.588-0.002-6.084-5.376-11.241-5.413c5.233,11.007,11.277,21.198,20.4,28.312
	c-0.868-9.816,2.575-18.374,2.499-28.728C577.754,552.405,577.016,558.767,572.295,558.764L572.295,558.764z M631.418,562.928
	L631.418,562.928c-7.434,3.807-19.078,3.466-29.146,2.497c-2.375,6.368-4.794,12.692-4.579,21.65
	c5.621,0.624,6.038-3.954,11.658-3.33c2.698,9.731-3.423,27.347,5.412,31.644C618.058,595.921,627.93,580.811,631.418,562.928
	L631.418,562.928z M378.294,82.172c1.858-2.353,3.628-4.714,5.486-7.067c-3.561,1.382-6.886,2.446-9.999,3.239
	c-3.08,0.785-6.119,1.362-9.093,1.663c-5.43,0.549-8.778-0.065-10.158-1.746c-1.372-1.671-0.432-4.268,2.794-7.879
	c3.245-3.632,7.297-6.636,12.087-9.083c4.641-2.37,9.448-3.769,14.277-4.229c2.714-0.259,5.1-0.243,7.112,0.056
	c2.009,0.298,3.821,0.859,5.519,1.746c1.815-2.353,3.584-4.724,5.442-7.066c-1.727-0.626-3.83-1.003-6.051-1.195
	c-2.31-0.2-4.779-0.172-7.754,0.102c-8.58,0.79-17.17,3.327-25.503,7.217c-4.286,2-8.195,4.177-11.626,6.571
	c-3.484,2.431-6.67,5.057-9.34,7.879c-2.681,2.834-4.328,5.258-4.951,7.319c-0.613,2.028-0.129,3.662,1.455,4.911
	c3.14,2.476,10.059,3.017,20.097,1.979c3.404-0.352,6.666-0.896,10.049-1.633C371.562,84.207,374.934,83.283,378.294,82.172
	L378.294,82.172z M431.781,53.699c-3.763,0.141-7.309,1.216-10.776,3.277c-3.488,2.074-6.443,4.932-8.914,8.505
	c-2.449,3.54-3.127,6.187-2.18,8.009c0.955,1.837,3.494,2.688,7.559,2.521c4.108-0.169,7.88-1.238,11.296-3.305
	c3.327-2.013,6.072-4.804,8.143-8.327c2.071-3.524,2.605-6.234,1.741-8.094C437.78,54.411,435.501,53.56,431.781,53.699
	L431.781,53.699z M435.794,47.407c-7.439,0.271-14.544,2.234-21.174,5.62c-3.39,1.731-6.492,3.703-9.194,5.91
	c-2.761,2.255-5.096,4.737-7.151,7.496c-2.046,2.748-3.277,5.158-3.655,7.226c-0.379,2.067,0.187,3.822,1.556,5.162
	c2.858,2.796,8.761,3.828,17.323,3.463c8.561-0.364,16.037-2.184,22.487-5.405c3.155-1.576,5.84-3.395,8.132-5.526
	c2.273-2.116,4.144-4.556,5.605-7.245c1.476-2.715,2.174-5.12,2.268-7.235c0.095-2.114-0.349-3.928-1.572-5.434
	C448.003,48.464,443.191,47.137,435.794,47.407L435.794,47.407z M490.272,79.409c0.777-2.306,1.642-4.593,2.462-6.899
	c-2.588,0.971-5.105,1.709-7.503,2.166c-2.403,0.457-4.817,0.667-7.334,0.616c-4.339-0.088-7.421-1.117-9.069-3.155
	c-1.621-2.004-1.636-4.742-0.041-8.188c1.603-3.462,4.112-6.111,7.337-8.028c3.229-1.919,6.858-2.828,10.895-2.745
	c2.257,0.047,4.315,0.343,6.165,0.906c1.769,0.538,3.548,1.381,5.265,2.585c0.82-2.296,1.641-4.593,2.417-6.908
	c-1.656-0.905-3.519-1.564-5.58-2.035c-2.023-0.462-4.247-0.741-6.591-0.794c-7.161-0.162-13.572,1.293-19.382,4.397
	c-2.978,1.591-5.534,3.449-7.655,5.536c-2.185,2.151-4.028,4.51-5.392,7.179c-1.361,2.661-2.027,5.042-1.929,7.123
	c0.101,2.1,0.995,3.915,2.656,5.424c3.373,3.065,9.204,4.735,17.407,4.91c2.69,0.058,5.41-0.108,8.035-0.467
	C485.142,80.664,487.713,80.099,490.272,79.409L490.272,79.409z M510.537,48.368c-1.8,5.573-3.579,11.139-5.359,16.71
	c-1.778,5.565-3.56,11.137-5.359,16.71c4.13,0.224,8.218,0.439,12.305,0.663c0.688-2.362,1.309-4.749,1.929-7.113
	c0.622-2.368,1.33-4.724,1.973-7.095c5.659,0.411,11.366,0.905,16.986,1.392c-0.469,2.38-1.023,4.761-1.493,7.15
	c-0.468,2.38-0.98,4.761-1.493,7.132c4.009,0.364,8.061,0.719,12.113,1.083c0.93-5.648,1.901-11.287,2.832-16.944
	c0.928-5.639,1.859-11.296,2.788-16.953c-3.572-0.318-7.145-0.616-10.673-0.906c-0.438,2.147-0.856,4.292-1.316,6.432
	c-0.462,2.144-0.879,4.285-1.362,6.423c-5.532-0.467-11.064-0.943-16.593-1.345c0.613-2.128,1.204-4.251,1.797-6.386
	c0.59-2.122,1.141-4.256,1.71-6.385C517.712,48.751,514.19,48.564,510.537,48.368L510.537,48.368z M572.183,69.401
	c2.362,0.364,4.039,0.264,5.1-0.271c1.087-0.548,1.619-1.607,1.679-3.202c0.059-1.58-0.41-2.805-1.337-3.623
	c-0.946-0.834-2.642-1.415-4.913-1.755c-1.532-0.229-3.017-0.429-4.545-0.616c-0.306,2.941-0.525,5.891-0.701,8.832
	C569.037,68.962,570.608,69.167,572.183,69.401L572.183,69.401z M566.909,74.89c1.562,0.18,6.597,0.141,7.347,1.328
	c2.855,4.519,6.642,10.312,8.948,14.31c4.288,0.681,7.186,1.085,11.473,1.757c-3.798-6.091-8.399-12.784-13.127-18.337
	c2.889-0.261,5.005-1.035,6.411-2.306c1.394-1.259,2.083-3.064,2.072-5.377c-0.014-3.344-1.309-5.983-3.839-7.907
	c-2.503-1.903-6.517-3.316-11.896-4.08c-5.416-0.768-10.83-1.362-16.284-1.988c-0.623,5.704-1.378,11.389-2.088,17.074
	c-0.711,5.694-1.378,11.38-2.088,17.074c4.016,0.477,8.032,0.972,12.049,1.466c0.134-2.175,0.333-4.338,0.533-6.507
	C566.619,79.234,566.732,77.065,566.909,74.89L566.909,74.89z M631.438,93.327c1.356,2.465,2.669,4.911,4.024,7.356
	c4.219,0.99,8.393,1.96,12.655,2.95c-4.171-6.889-8.236-13.709-12.068-20.491c-3.8-6.726-7.367-13.434-10.875-20.089
	c-4.345-0.924-8.73-1.812-12.98-2.595c-2.153,5.489-4.315,10.978-6.725,16.365c-2.426,5.424-5.055,10.754-7.781,16.056
	c4.077,0.794,8.198,1.597,12.318,2.372c0.84-1.951,1.68-3.93,2.519-5.91C618.794,90.555,625.068,91.862,631.438,93.327
	L631.438,93.327z M614.947,83.273c4.164,0.784,8.333,1.662,12.549,2.613c-1.366-2.642-2.736-5.292-4.013-7.907
	c-1.28-2.622-2.646-5.256-3.837-7.851c-0.828,2.166-1.545,4.379-2.306,6.572C616.579,78.896,615.73,81.08,614.947,83.273
	L614.947,83.273z M646.782,67.88c1.316,6.254,2.677,12.509,3.99,18.745c1.316,6.245,2.632,12.491,3.948,18.736
	c4.051,1.092,8.103,2.203,12.243,3.324c-1.076-4.351-2.178-8.732-3.229-13.07c-1.058-4.363-2.153-8.719-3.229-13.079
	c3.894,5.097,7.924,10.228,12.034,15.413c4.214,5.317,8.598,10.727,13.029,16.15c5.076,1.568,10.152,3.146,15.23,4.742
	c-2.296-6.693-4.572-13.373-6.841-20.043c-2.277-6.698-4.546-13.368-6.886-20.071c-3.79-1.074-7.537-2.166-11.238-3.202
	c1.388,4.5,2.756,9.004,4.119,13.48c1.366,4.486,2.774,8.98,4.162,13.48c-4.388-5.405-8.701-10.743-12.807-16.038
	c-4.046-5.217-8.013-10.353-11.816-15.394C655.228,69.989,651.005,68.935,646.782,67.88L646.782,67.88z M698.997,82.517
	c2.608,6.852,5.215,13.695,7.779,20.538c2.563,6.843,5.172,13.686,7.778,20.528c13.188,4.659,26.893,9.999,40.998,15.544
	c-1.381-2.885-2.762-5.76-4.1-8.654c-8.78-3.407-17.427-6.749-25.896-10.026c-1.356-3.211-2.714-6.432-4.027-9.643
	c1.012,0.383,2.026,0.768,3.042,1.152c6.455,2.448,12.988,4.932,19.651,7.464c-1.293-2.866-2.674-5.742-4.055-8.626
	c-7.399-2.772-14.798-5.517-22.019-8.206c-1.105-2.623-2.168-5.237-3.229-7.851c7.44,2.745,15.058,5.527,22.765,8.355
	c-1.337-2.875-2.674-5.75-4.055-8.635C721.767,90.209,710.216,86.111,698.997,82.517L698.997,82.517z M729.054,173.185v23.083h3.553
	v-10.993h12.901v10.993h3.553v-23.083h-3.553v9.462h-12.901v-9.462H729.054L729.054,173.185z M727.05,142.403v23.083h3.444v-20.27
	l6.769,15.832h3.571l6.768-15.832v0.118v20.151h3.463v-23.083h-5.293l-6.732,15.705l-6.696-15.705H727.05L727.05,142.403z
	 M739.058,207.043l-4.819,11.489h9.655L739.058,207.043L739.058,207.043z M737.053,203.966l-10.021,23.083h3.745l2.395-5.921h11.827
	l2.395,5.921h3.689l-10.003-23.083H737.053z"/>
<path fill-rule="evenodd" clip-rule="evenodd" fill="#005DAC" d="M374.113,903.918c-0.416,0-0.833,0-1.249,0
	c3.213-13.248,11.195-24.055,16.654-35.805c5.506-11.854,10.199-24.153,17.07-35.391c3.425,1.174,1.031,5.612,1.666,9.577
	c13.656-5.776,23.32-19.147,27.062-36.223c14.474-1.401,30.545-6.267,42.884-9.577c4.251-1.141,6.363-1.932,8.326,1.249
	c3.382,5.472,2.822,16.374,2.916,24.981c9.711,0.68,12.72-8.922,18.735-13.323c55.357,15.274,114.435,26.827,161.806,50.089
	c1.31,0.643,2.61,1.294,3.901,1.955c-0.072,0.027-0.146,0.054-0.218,0.077c-1.418,0.476-2.789,0.399-4.135,0.113
	c-1.763-0.374-3.485-1.11-5.223-1.44c-36.613-6.944-70.226-15.947-104.505-24.979c-13.419-3.538-26.355-8.903-38.721-11.243
	c-2.682-0.507-6.416-1.963-9.362-2.103c-3.756-0.179-6.684,1.153-9.374,2.52c-1.3,4.29,0.85,7.896,3.332,10.409
	c5.464,5.531,14.715,8.897,22.482,13.322c8.12,4.627,15.904,8.957,22.899,12.908c-7.207,1.921-19.515-2.918-23.314,2.913
	c2.955,5.113,4.376,7.146,7.713,12.012c4.264,6.216,10.48,15.244,14.353,21.714c-19.86-9.568-35.512-24.368-51.627-37.89
	c-16.25-13.632-32.426-27.072-49.962-39.553c-2.641-0.002-2.498,2.776-5.413,2.499c0.936,5.038,0.045,10.168,1.25,14.988
	c0.36,1.441,1.719,2.79,2.082,4.164c0.591,2.238,0.124,4.794,0.417,7.078c2.303,17.964,9.847,34.633,9.576,53.709
	c-10.313-12.865-16.979-29.376-27.063-42.469C407.702,871.725,394.023,890.938,374.113,903.918L374.113,903.918z M835.846,480.491
	c-2.926,8.315-10.357,12.125-14.572,19.15c10.105,8.354,26.437,10.479,38.721,16.655c-9.077,11.325-21.465,19.336-32.477,28.727
	c-11.876-0.766-22.558,1.858-32.892,1.251c5.841-10.675,20.018-13.015,26.647-22.899c-9.969-5.577-22.351-8.737-34.975-11.657
	c4.639-12.989,14.057-21.198,22.066-30.812C818.295,481.285,828.35,478.977,835.846,480.491L835.846,480.491z M812.529,450.93
	c-1.317,8.546-11.41,11.897-14.156,20.401c-6.981,0.321-15.613,1.612-24.148,1.665c1.002-9.156,10.043-13.809,13.324-22.066
	C795.876,450.93,804.203,450.93,812.529,450.93L812.529,450.93z M777.141,416.372c2.282,7.688-0.517,15.968,0,25.398
	c-7.251,0.675-17.321,0.703-24.564,0c0.399-8.899,1.935-16.661,2.496-25.398C761.151,414.433,770.525,416.104,777.141,416.372
	L777.141,416.372z M804.124,265.654l-124.84-0.532l-22.47-21.119l115.328-0.833l2.916-182.361l29.561,33.308L804.124,265.654
	L804.124,265.654z M698.45,740.294c-3.252-6.578-11.673-4.302-18.319-3.748c-16.271,1.355-37.134-0.659-51.212,1.249
	c3.335,8.46,14.867,8.727,14.156,21.234c-22.011,3.525-47.115,3.957-70.362,6.244c-5.113,8.365-11.282,19.24-21.651,23.731
	c-0.814-6.417-2.522-14.108-1.249-21.232c-4.353-0.505-10.915,1.199-13.324-1.25c0.939-5.563,3.876-7.346,4.164-12.906
	c-10.647,10.59-28.657,19.632-29.144,40.385c40.091,1.404,78.273,6.939,120.741,4.581c-17.243-3.991-41.036-1.432-55.792-7.912
	C606.409,763.165,663.434,762.732,698.45,740.294L698.45,740.294z M715.937,789.005c-22.09-3.508-36.958,6.345-53.709,9.994
	c-2.294,0.498-4.842-0.24-6.661,2.08c7.578,2.605,17,2.856,23.731,1.665C693.134,800.3,706.839,795.537,715.937,789.005
	L715.937,789.005z M645.157,801.079c-0.733-2.338-8.486-3.626-8.327,0.417C639.52,801.271,643.141,801.979,645.157,801.079z"/>
</svg>
